<svg width="48" height="48" viewBox="0 0 48 48" fill="none" xmlns="http://www.w3.org/2000/svg">
<path d="M12 46C12 46 12.5126 41.0214 13.5 38C13.99 36.5008 15 34.25 15 34.25M16.5 30.5C16.5 30.5 15.7795 29.6462 15.5 29C14.88 27.5662 15.5 25 15.5 25M16.5 30.5L15 34.25M16.5 30.5C16.5 30.5 17.6213 31.5118 18.5 32C19.3787 32.4882 21 33 21 33M13.5 15.5L14.5 16.5C14.5 16.5 15.3175 19.209 15.5 21C15.6584 22.554 15.5 25 15.5 25M13.5 15.5H11.5C11.5 15.5 7.99996 9.5 9.00002 6.5C9.44531 5.1642 12 4.49999 12 4.49999M13.5 15.5C13.5 15.5 16.1764 12.3025 17.5 10C18.6758 7.95451 20 4.49999 20 4.49999V4M15 3.5C15 3.5 16.7654 2.47172 18 2.5C18.8049 2.51843 19.5 2.49998 20 3C20.2762 3.27614 20 4 20 4M20 4H28M28 4C28 4 27.8485 3.35992 28 3C28.3124 2.258 30 2.5 30 2.5C30 2.5 38.5528 2.86949 39 5.99999C39.5 9.5 37.5 13.5 36 15.5C36 15.5 35.0858 15.5 34.5 15.5M28 4C28 4 29.2627 7.78354 30.5 10C31.7945 12.319 32.9379 13.3521 34.5 15.5M34.5 15.5C33.9142 17.6479 33.2436 18.787 33 21C32.8291 22.5527 33 25 33 25M31.5 31C31.5 31 32.5 30 33 29C33.5 28 33 25 33 25M31.5 31C31.5 31 29.5 32.5 26.5 33M31.5 31C31.5 31 32.4142 32.7855 33 34.25M34.5 38C33.9142 36.5355 33.5858 35.7145 33 34.25M33 25C33 25 32 23 29.5 21.5M15.5 25C15.5 25 16.356 23.7338 17 23C17.5464 22.3773 19 21.5 19 21.5M17.5 15.5C17.5 15.5 18.7044 14.8769 19.5 15C20.4648 15.1493 21.5 16.5 21.5 16.5M27 16.5C27 16.5 27.3887 15.3493 28 15C28.6782 14.6125 30 15 30 15M21 33C21 33 20.9477 34.2238 21.5 34.5C22.5 35 25 35 26 34.5C26.5523 34.2239 26.5 33 26.5 33M21 33L24 32.5M26.5 33L24 32.5M24 32.5V29M24 29L21 25C21 25 21.2706 23.8928 22 23.5C23.2035 22.852 25 23 26 23.5C26.7571 23.8785 27 25 27 25L24 29ZM15 34.25C15 34.25 17.6279 35.9036 19.5 36.5C20.2671 36.7444 20.7028 36.8876 21.5 37C22.5634 37.15 23.1866 37.15 24.25 37M33 34.25C31.3476 35.313 30.3419 35.8159 28.5 36.5C27.9212 36.715 27.6046 36.8745 27 37C25.9485 37.2182 25.3015 37.2182 24.25 37M24.25 37C24.1524 37.9763 24.0976 38.5237 24 39.5M24 39.5C23.3501 39.0667 22.6499 39.0667 22 39.5C21.1716 40.0523 21.1406 41.0715 21.5 42C21.911 43.0618 22.8615 43.5 24 43.5C25.1386 43.5 26.089 43.0618 26.5 42C26.8594 41.0715 26.8284 40.0523 26 39.5C25.3501 39.0667 24.6499 39.0667 24 39.5ZM35 41C35.3905 42.9526 36 46 36 46" stroke="white" stroke-width="2"/>
</svg>
